<svg xmlns="http://www.w3.org/2000/svg" viewBox="0 0 64 64">
  <defs>
    <linearGradient id="g" x1="0" y1="0" x2="1" y2="1">
      <stop offset="0" stop-color="#ff5c8a"/>
      <stop offset="1" stop-color="#ffa9c4"/>
    </linearGradient>
  </defs>
  <g fill="none" stroke="url(#g)" stroke-width="3.5" stroke-linecap="round" stroke-linejoin="round">
    <path d="M40 12a6 6 0 0 1 6 6c0 4-5 5-7 9-2-4-7-5-7-9a6 6 0 0 1 12-6z"/>
    <path d="M18 52a6 6 0 0 0 6-6c0-4-5-5-7-9-2 4-7 5-7 9a6 6 0 0 0 8 6z"/>
    <path d="M20 22l24 20"/>
    <path d="M39 40l6 7"/>
    <path d="M34 34l7 6"/>
  </g>
</svg>
